<svg width="126" height="43" viewBox="0 0 126 43" fill="none" xmlns="http://www.w3.org/2000/svg">
<path d="M8.54001 0.119995V42H0.140015V0.119995H8.54001Z" fill="#070707"/>
<path d="M30.6992 34.26L39.0992 8.75999H48.0392L35.7392 42H25.5392L13.2992 8.75999H22.2992L30.6992 34.26Z" fill="#070707"/>
<path d="M50.5972 25.26C50.5972 21.9 51.2572 18.92 52.5772 16.32C53.9372 13.72 55.7572 11.72 58.0372 10.32C60.3572 8.91999 62.9372 8.21999 65.7772 8.21999C68.2572 8.21999 70.4172 8.71999 72.2572 9.71999C74.1372 10.72 75.6372 11.98 76.7572 13.5V8.75999H85.2172V42H76.7572V37.14C75.6772 38.7 74.1772 40 72.2572 41.04C70.3772 42.04 68.1972 42.54 65.7172 42.54C62.9172 42.54 60.3572 41.82 58.0372 40.38C55.7572 38.94 53.9372 36.92 52.5772 34.32C51.2572 31.68 50.5972 28.66 50.5972 25.26ZM76.7572 25.38C76.7572 23.34 76.3572 21.6 75.5572 20.16C74.7572 18.68 73.6772 17.56 72.3172 16.8C70.9572 16 69.4972 15.6 67.9372 15.6C66.3772 15.6 64.9372 15.98 63.6172 16.74C62.2972 17.5 61.2172 18.62 60.3772 20.1C59.5772 21.54 59.1772 23.26 59.1772 25.26C59.1772 27.26 59.5772 29.02 60.3772 30.54C61.2172 32.02 62.2972 33.16 63.6172 33.96C64.9772 34.76 66.4172 35.16 67.9372 35.16C69.4972 35.16 70.9572 34.78 72.3172 34.02C73.6772 33.22 74.7572 32.1 75.5572 30.66C76.3572 29.18 76.7572 27.42 76.7572 25.38Z" fill="#070707"/>
<path d="M111.841 8.27999C115.801 8.27999 119.001 9.53999 121.441 12.06C123.881 14.54 125.101 18.02 125.101 22.5V42H116.701V23.64C116.701 21 116.041 18.98 114.721 17.58C113.401 16.14 111.601 15.42 109.321 15.42C107.001 15.42 105.161 16.14 103.801 17.58C102.481 18.98 101.821 21 101.821 23.64V42H93.4213V8.75999H101.821V12.9C102.941 11.46 104.361 10.34 106.081 9.54C107.841 8.69999 109.761 8.27999 111.841 8.27999Z" fill="#070707"/>
</svg>
