<svg width="281" height="52" viewBox="0 0 281 52" fill="none" xmlns="http://www.w3.org/2000/svg">
<path d="M80.776 0V50.544H68.464V0H80.776Z" fill="white"/>
<path d="M107.77 39.024L116.482 10.368H129.586L115.33 50.544H100.138L85.8824 10.368H99.0584L107.77 39.024Z" fill="white"/>
<path d="M132.321 30.384C132.321 26.256 133.089 22.632 134.625 19.512C136.209 16.392 138.345 13.992 141.033 12.312C143.721 10.632 146.721 9.792 150.033 9.792C152.865 9.792 155.337 10.368 157.449 11.52C159.609 12.672 161.265 14.184 162.417 16.056V10.368H174.729V50.544H162.417V44.856C161.217 46.728 159.537 48.24 157.377 49.392C155.265 50.544 152.793 51.12 149.961 51.12C146.697 51.12 143.721 50.28 141.033 48.6C138.345 46.872 136.209 44.448 134.625 41.328C133.089 38.16 132.321 34.512 132.321 30.384ZM162.417 30.456C162.417 27.384 161.553 24.96 159.825 23.184C158.145 21.408 156.081 20.52 153.633 20.52C151.185 20.52 149.097 21.408 147.369 23.184C145.689 24.912 144.849 27.312 144.849 30.384C144.849 33.456 145.689 35.904 147.369 37.728C149.097 39.504 151.185 40.392 153.633 40.392C156.081 40.392 158.145 39.504 159.825 37.728C161.553 35.952 162.417 33.528 162.417 30.456Z" fill="white"/>
<path d="M208.116 9.936C212.82 9.936 216.564 11.472 219.348 14.544C222.18 17.568 223.596 21.744 223.596 27.072V50.544H211.356V28.728C211.356 26.04 210.66 23.952 209.268 22.464C207.876 20.976 206.004 20.232 203.652 20.232C201.3 20.232 199.428 20.976 198.036 22.464C196.644 23.952 195.948 26.04 195.948 28.728V50.544H183.636V10.368H195.948V15.696C197.196 13.92 198.876 12.528 200.988 11.52C203.1 10.464 205.476 9.936 208.116 9.936Z" fill="white"/>
<path d="M12.888 19.112L14.488 22.664L4.37601 26.888L14.488 30.984L12.888 34.664L0.0880127 29.128V24.68L12.888 19.112Z" fill="url(#paint0_linear_314_2)"/>
<path d="M25.4818 11.432L29.8978 12.424L22.3778 41.128L17.9298 40.104L25.4818 11.432Z" fill="url(#paint1_linear_314_2)"/>
<path d="M267.688 19.112L280.488 24.68V29.128L267.688 34.664L266.088 30.984L276.2 26.888L266.088 22.664L267.688 19.112Z" fill="url(#paint2_linear_314_2)"/>
<defs>
<linearGradient id="paint0_linear_314_2" x1="140.288" y1="0" x2="140.288" y2="51.12" gradientUnits="userSpaceOnUse">
<stop stop-color="#B6F829"/>
<stop offset="1" stop-color="#67DD0A"/>
</linearGradient>
<linearGradient id="paint1_linear_314_2" x1="140.288" y1="0" x2="140.288" y2="51.12" gradientUnits="userSpaceOnUse">
<stop stop-color="#B6F829"/>
<stop offset="1" stop-color="#67DD0A"/>
</linearGradient>
<linearGradient id="paint2_linear_314_2" x1="140.288" y1="0" x2="140.288" y2="51.12" gradientUnits="userSpaceOnUse">
<stop stop-color="#B6F829"/>
<stop offset="1" stop-color="#67DD0A"/>
</linearGradient>
</defs>
</svg>
