<svg width="68" height="68" viewBox="0 0 68 68" fill="none" xmlns="http://www.w3.org/2000/svg">
<circle cx="4" cy="4" r="4" fill="#F0F0F0"/>
<circle cx="16" cy="4" r="4" fill="#F0F0F0"/>
<circle cx="28" cy="4" r="4" fill="#F0F0F0"/>
<circle cx="4" cy="16" r="4" fill="#F0F0F0"/>
<circle cx="16" cy="16" r="4" fill="#F0F0F0"/>
<path d="M31.9998 16C31.9998 18.2091 30.209 20 27.9998 20C25.7907 20 23.9998 18.2091 23.9998 16C23.9998 13.7909 25.7907 12 27.9998 12C30.209 12 31.9998 13.7909 31.9998 16Z" fill="#F0F0F0"/>
<circle cx="4" cy="28" r="4" fill="#F0F0F0"/>
<circle cx="16" cy="28" r="4" fill="#F0F0F0"/>
<circle cx="28" cy="28" r="4" fill="#F0F0F0"/>
<circle cx="40" cy="4" r="4" fill="#F0F0F0"/>
<circle cx="52" cy="4" r="4" fill="#F0F0F0"/>
<circle cx="64" cy="4" r="4" fill="#F0F0F0"/>
<circle cx="40" cy="16" r="4" fill="#F0F0F0"/>
<circle cx="52" cy="16" r="4" fill="#F0F0F0"/>
<path d="M67.9998 16C67.9998 18.2091 66.209 20 63.9998 20C61.7907 20 59.9998 18.2091 59.9998 16C59.9998 13.7909 61.7907 12 63.9998 12C66.209 12 67.9998 13.7909 67.9998 16Z" fill="#F0F0F0"/>
<circle cx="40" cy="28" r="4" fill="#F0F0F0"/>
<circle cx="52" cy="28" r="4" fill="#F0F0F0"/>
<circle cx="4" cy="40" r="4" fill="#F0F0F0"/>
<circle cx="16" cy="40" r="4" fill="#F0F0F0"/>
<circle cx="28" cy="40" r="4" fill="#F0F0F0"/>
<circle cx="4" cy="52" r="4" fill="#F0F0F0"/>
<circle cx="16" cy="52" r="4" fill="#F0F0F0"/>
<path d="M31.9998 52C31.9998 54.2091 30.209 56 27.9998 56C25.7907 56 23.9998 54.2091 23.9998 52C23.9998 49.7909 25.7907 48 27.9998 48C30.209 48 31.9998 49.7909 31.9998 52Z" fill="#F0F0F0"/>
<circle cx="4" cy="64" r="4" fill="#F0F0F0"/>
<circle cx="16" cy="64" r="4" fill="#F0F0F0"/>
</svg>
