<svg width="69" height="69" viewBox="0 0 69 69" fill="none" xmlns="http://www.w3.org/2000/svg">
<circle cx="64.0062" cy="4.00631" r="4" transform="rotate(89.9096 64.0062 4.00631)" fill="#D8D8D8"/>
<circle cx="64.0251" cy="16.0063" r="4" transform="rotate(89.9096 64.0251 16.0063)" fill="#D8D8D8"/>
<circle cx="64.044" cy="28.0063" r="4" transform="rotate(89.9096 64.044 28.0063)" fill="#D8D8D8"/>
<circle cx="52.0062" cy="4.02523" r="4" transform="rotate(89.9096 52.0062 4.02523)" fill="#D8D8D8"/>
<circle cx="52.0251" cy="16.0252" r="4" transform="rotate(89.9096 52.0251 16.0252)" fill="#D8D8D8"/>
<path d="M52.0504 32.025C49.8412 32.0285 48.0475 30.2405 48.044 28.0314C48.0406 25.8222 49.8286 24.0285 52.0377 24.025C54.2469 24.0216 56.0405 25.8096 56.044 28.0187C56.0475 30.2279 54.2595 32.0216 52.0504 32.025Z" fill="#D8D8D8"/>
<circle cx="40.0062" cy="4.04421" r="4" transform="rotate(89.9096 40.0062 4.04421)" fill="#D8D8D8"/>
<circle cx="40.0251" cy="16.0442" r="4" transform="rotate(89.9096 40.0251 16.0442)" fill="#D8D8D8"/>
<circle cx="40.0442" cy="28.0442" r="4" transform="rotate(89.9096 40.0442 28.0442)" fill="#D8D8D8"/>
<circle cx="64.0631" cy="40.0063" r="4" transform="rotate(89.9096 64.0631 40.0063)" fill="#D8D8D8"/>
<circle cx="64.082" cy="52.0063" r="4" transform="rotate(89.9096 64.082 52.0063)" fill="#D8D8D8"/>
<circle cx="64.1009" cy="64.0063" r="4" transform="rotate(89.9096 64.1009 64.0063)" fill="#D8D8D8"/>
<circle cx="52.0631" cy="40.0252" r="4" transform="rotate(89.9096 52.0631 40.0252)" fill="#D8D8D8"/>
<circle cx="52.082" cy="52.0252" r="4" transform="rotate(89.9096 52.082 52.0252)" fill="#D8D8D8"/>
<path d="M52.1072 68.025C49.8981 68.0285 48.1044 66.2405 48.1009 64.0314C48.0974 61.8222 49.8855 60.0285 52.0946 60.025C54.3037 60.0216 56.0974 61.8096 56.1009 64.0187C56.1044 66.2279 54.3164 68.0216 52.1072 68.025Z" fill="#D8D8D8"/>
<circle cx="40.0631" cy="40.0442" r="4" transform="rotate(89.9096 40.0631 40.0442)" fill="#D8D8D8"/>
<circle cx="40.082" cy="52.0442" r="4" transform="rotate(89.9096 40.082 52.0442)" fill="#D8D8D8"/>
<circle cx="28.0062" cy="4.06313" r="4" transform="rotate(89.9096 28.0062 4.06313)" fill="#D8D8D8"/>
<circle cx="28.0251" cy="16.0631" r="4" transform="rotate(89.9096 28.0251 16.0631)" fill="#D8D8D8"/>
<circle cx="28.044" cy="28.0631" r="4" transform="rotate(89.9096 28.044 28.0631)" fill="#D8D8D8"/>
<circle cx="16.0062" cy="4.08205" r="4" transform="rotate(89.9096 16.0062 4.08205)" fill="#D8D8D8"/>
<circle cx="16.0251" cy="16.0821" r="4" transform="rotate(89.9096 16.0251 16.0821)" fill="#D8D8D8"/>
<path d="M16.0504 32.0818C13.8412 32.0853 12.0475 30.2973 12.044 28.0881C12.0406 25.879 13.8286 24.0853 16.0377 24.0818C18.2469 24.0783 20.0405 25.8664 20.044 28.0755C20.0475 30.2846 18.2595 32.0783 16.0504 32.0818Z" fill="#D8D8D8"/>
<circle cx="4.0062" cy="4.10104" r="4" transform="rotate(89.9096 4.0062 4.10104)" fill="#D8D8D8"/>
<circle cx="4.02512" cy="16.101" r="4" transform="rotate(89.9096 4.02512 16.101)" fill="#D8D8D8"/>
</svg>
